<svg viewBox="0 0 460 340" xmlns="http://www.w3.org/2000/svg" role="img" aria-label="Mobile Osmoseanlage OSMOBIL PRO X">
  <defs>
    <linearGradient id="steel" x1="0" y1="0" x2="1" y2="1">
      <stop offset="0" stop-color="#eef2f8"/><stop offset="0.5" stop-color="#cdd6e4"/><stop offset="1" stop-color="#aeb9cb"/>
    </linearGradient>
    <linearGradient id="cyl" x1="0" y1="0" x2="1" y2="0">
      <stop offset="0" stop-color="#c6d0df"/><stop offset="0.5" stop-color="#eef3fa"/><stop offset="1" stop-color="#b3becd"/>
    </linearGradient>
  </defs>
  <rect x="0" y="0" width="460" height="340" rx="22" fill="#eef2f9"/>
  <ellipse cx="230" cy="304" rx="168" ry="16" fill="#dbe3f0"/>
  <!-- Rahmen / Griff -->
  <path d="M318 96 q46 -6 46 34 l0 118" fill="none" stroke="#7b8798" stroke-width="9" stroke-linecap="round"/>
  <!-- Korpus Edelstahl -->
  <rect x="128" y="96" width="196" height="158" rx="16" fill="url(#steel)" stroke="#93a0b3" stroke-width="2"/>
  <!-- Bedienpanel -->
  <rect x="150" y="112" width="152" height="60" rx="9" fill="#22314d"/>
  <!-- TDS-Display -->
  <rect x="164" y="124" width="70" height="34" rx="5" fill="#0e6b4c"/>
  <text x="199" y="146" font-family="Arial, sans-serif" font-size="15" font-weight="700" fill="#7dffc4" text-anchor="middle">000 ppm</text>
  <text x="199" y="167" font-family="Arial, sans-serif" font-size="8" fill="#9fb4c9" text-anchor="middle">TDS</text>
  <!-- Regler -->
  <circle cx="258" cy="134" r="10" fill="#5b6270"/>
  <circle cx="284" cy="134" r="10" fill="#5b6270"/>
  <circle cx="258" cy="134" r="3" fill="#cfd8e6"/><circle cx="284" cy="134" r="3" fill="#cfd8e6"/>
  <!-- Membran-/Filterzylinder -->
  <rect x="146" y="182" width="30" height="66" rx="13" fill="url(#cyl)" stroke="#93a0b3" stroke-width="1.5"/>
  <rect x="182" y="182" width="30" height="66" rx="13" fill="url(#cyl)" stroke="#93a0b3" stroke-width="1.5"/>
  <!-- Reinstwasser-Schlauch (Coil) -->
  <circle cx="272" cy="210" r="30" fill="none" stroke="#4aa3e0" stroke-width="8"/>
  <circle cx="272" cy="210" r="17" fill="none" stroke="#4aa3e0" stroke-width="8"/>
  <!-- Räder -->
  <circle cx="168" cy="262" r="22" fill="#2f333c"/><circle cx="168" cy="262" r="8" fill="#5b6270"/>
  <circle cx="286" cy="262" r="22" fill="#2f333c"/><circle cx="286" cy="262" r="8" fill="#5b6270"/>
  <!-- Wassertropfen-Badge -->
  <g transform="translate(360,150)">
    <path d="M0 -30 C 20 -6 26 6 26 16 A26 26 0 1 1 -26 16 C -26 6 -20 -6 0 -30 Z" fill="#4aa3e0"/>
    <path d="M-8 8 a12 12 0 0 0 12 12" fill="none" stroke="#dff0ff" stroke-width="4" stroke-linecap="round"/>
  </g>
</svg>
